PathFileType	4	(X/Y/Z)	C:/Users/beibeiliu/ov580/test_trc/User2\sequence.10_training_dense_right.trc
DataRate	CameraRate	NumFrames	NumMarkers	Units	OrigDataRate	OrigDataStartFrame	OrigNumFrames
120	120	14	19	mm	120	122	484
Frame#	Time	ThumbCMC			ThumbMCP			ThumbIP			ThumbTip			IndexMCP			IndexPIP			IndexTip			MiddleMCP			MiddlePIP			MiddleTip			RingMCP			RingPIP			RingTip			PinkyMCP			PinkyPIP			PinkyTip			BackHand1			BackHand2			BackHand3	
		X0	Y0	Z0	X1	Y1	Z1	X2	Y2	Z2	X3	Y3	Z3	X4	Y4	Z4	X5	Y5	Z5	X6	Y6	Z6	X7	Y7	Z7	X8	Y8	Z8	X9	Y9	Z9	X10	Y10	Z10	X11	Y11	Z11	X12	Y12	Z12	X13	Y13	Z13	X14	Y14	Z14	X15	Y15	Z15	X16	Y16	Z16	X17	Y17	Z17	X18	Y18	Z18	
121	1.00833	89.4571	-23.9512	122.152	66.1798	-47.4736	106.548	55.5426	-69.5947	75.6604	58.4619	-87.4131	56.5415	95.2845	-11.2874	42.198	82.535	-8.56602	13.5118	78.8657	-9.81712	-13.1787	105.558	-44.2061	33.7371	82.8399	-73.4983	29.8644	77.7133	-88.1247	70.9504	116.92	-67.6297	39.8551	95.7714	-92.3175	50.4928	86.4317	-88.7173	84.7378	131.075	-80.8207	52.9788	105.782	-95.5213	65.7195	103.448	-82.0641	97.3384	149.178	-30.3293	81.533	161.013	-25.872	114.526	128.366	-8.84007	101.434	
122	1.01667	90.9627	-17.6847	121.077	64.8281	-39.6193	104.468	52.3802	-59.7101	77.8472	56.6544	-77.2931	56.1239	95.9242	-5.22376	39.6845	86.3959	-3.79931	12.7814	80.1808	-4.24323	-8.59398	104.711	-38.5789	33.3006	81.6517	-67.6063	29.0506	69.1201	-79.7352	67.3384	112.605	-66.0857	38.962	88.4527	-86.1189	48.8064	81.9949	-84.1994	84.7702	122.823	-78.4927	52.0733	99.6584	-91.2509	64.5643	100.156	-77.4393	97.8037	152.283	-32.978	79.7555	164.673	-29.0605	116.967	131.015	-3.33264	105.3	
123	1.025	97.1924	-10.9527	121.086	65.8641	-29.7182	101.022	50.966	-47.8056	80.6514	43.7937	-68.8546	57.9446	103.691	-3.95708	37.708	94.1424	-2.54104	12.9754	88.1603	-5.86395	-17.3454	106.248	-40.549	30.8709	75.4928	-62.0981	28.8406	61.2003	-69.6373	63.6131	106.781	-66.3582	38.3027	80.2368	-79.8127	49.4346	74.3555	-76.076	83.0298	120.652	-83.3104	54.9993	88.8511	-89.3885	71.7698	89.7946	-72.6725	98.8953	154.145	-40.9078	80.8496	166.425	-34.0188	115.008	138.013	-6.88242	102.142	
124	1.03333	106.868	-7.17973	115.966	73.2356	-17.384	102.812	48.4137	-35.1852	81.6312	42.4951	-57.0254	64.9844	112.504	-8.30379	32.164	102.957	-7.68695	8.1314	94.7519	-8.17189	-17.5172	104.127	-42.0002	28.2693	74.3839	-58.4893	26.4599	52.9435	-59.9675	63.3107	101.033	-70.2394	43.5723	70.9096	-76.1327	52.8548	64.8492	-61.6218	86.7385	104.324	-88.1487	60.3138	75.821	-82.3449	76.8548	80.2108	-63.2044	99.5395	149.5	-50.8178	81.916	164.708	-42.6621	115.784	145.773	-12.0615	98.106	
125	1.04167	118.654	-1.77504	113.502	78.8966	-3.76786	100.133	52.2842	-17.7743	85.0235	39.66	-41.0348	69.6901	120.427	-16.6334	33.6427	110.77	-13.4057	8.24213	100.853	-16.2015	-20.907	103.33	-50.8794	33.3139	63.8067	-49.5956	28.697	42.1135	-44.7101	63.2194	89.7518	-66.8418	48.3958	58.3558	-64.6966	61.5371	57.3973	-46.7799	88.5876	92.2508	-81.9238	69.014	64.1815	-71.6454	78.7267	69.7382	-51.1662	102.723	145.712	-65.5046	84.6854	160.209	-58.3731	116.564	151.859	-23.7684	94.8277	
126	1.05	129.299	-3.01255	109.955	93.5611	6.06761	98.9256	61.0138	-0.677854	82.7742	45.4345	-22.7559	75.7628	123.837	-23.3711	33.1762	112.48	-24.9112	4.77957	102.49	-27.7897	-19.3739	94.0597	-52.8626	36.4222	58.2893	-44.4004	35.0528	36.2693	-30.5608	62.6176	78.0662	-66.0245	55.4968	53.0681	-51.048	65.353	55.1107	-32.2198	97.1692	78.7049	-78.6013	77.2287	53.8369	-58.8621	88.9466	66.0273	-35.8521	107.78	137.063	-70.2976	88.286	155.038	-69.7584	120.206	155.97	-35.8966	92.4241	
127	1.05833	140.434	-4.61554	107.145	107.387	8.50575	94.4619	75.768	11.8155	82.2021	53.4962	-7.3857	74.2906	121.379	-32.9494	33.204	113.891	-26.9878	5.34135	102.081	-28.6808	-20.2245	90.7195	-46.8161	40.8461	54.3503	-32.5618	41.8765	37.085	-9.82707	67.7491	74.1054	-55.5331	60.0955	48.6502	-35.41	73.2964	56.8467	-18.3559	100.099	65.6482	-68.6457	81.8589	51.5148	-40.49	94.1842	67.0922	-22.5966	113.821	126.428	-75.1755	92.8986	150.371	-71.025	124.694	154.101	-45.4219	97.5618	
128	1.06667	151.344	-5.99054	106.736	123.051	13.4221	95.3187	90.1059	20.653	79.8609	61.219	9.42621	70.6766	122.665	-33.4691	33.4967	112.017	-31.9292	11.0644	100.038	-30.3713	-14.8841	89.5897	-43.0963	46.237	57.2212	-18.5577	43.7623	46.5629	6.35909	73.3922	69.7114	-46.4497	63.044	51.2344	-21.7638	75.2569	66.2115	-3.57316	102.529	61.1978	-58.2326	87.9544	52.1844	-29.4723	94.1627	72.0096	-13.3008	110.816	119.167	-74.5687	95.3451	143.727	-78.6304	124.277	153.456	-50.994	98.1006	
129	1.075	153.917	-12.2654	104.026	131.496	13.4991	90.7582	102.821	29.8185	76.6151	74.355	28.6998	69.9595	118.798	-36.1081	31.9792	112.888	-30.2726	9.43478	98.5749	-28.701	-15.2125	85.8321	-35.76	43.9575	59.3529	-8.90647	48.5038	63.1278	18.1525	78.4115	69.7865	-38.693	66.6765	54.3922	-13.1738	75.7629	73.7571	5.40133	104.642	65.2168	-48.13	89.4856	55.6593	-15.128	101.306	79.7139	-5.08305	117.706	116.108	-72.32	97.4284	140.929	-76.4232	125.993	152.956	-54.7654	94.5373	
130	1.08333	160.891	-17.2343	102.956	140.097	15.0813	86.4166	111.245	30.1667	74.1066	85.6273	34.716	69.7648	121.363	-35.4561	33.1733	114.526	-28.505	8.29938	98.1918	-28.1795	-15.0206	83.2039	-30.9894	46.7062	67.3978	2.17176	51.0778	76.9126	22.2233	80.1493	69.4469	-30.0146	68.4541	62.4286	0.415001	77.4758	86.0294	13.8542	103.324	65.0644	-34.9478	88.6042	60.8396	-6.02098	98.8388	90.1747	4.2297	115.07	114.152	-69.5986	95.8603	132.707	-78.7567	126.583	149.183	-57.9874	93.7199	
131	1.09167	164.058	-20.3829	98.3631	151.181	12.1124	87.677	122.09	34.4968	71.3218	97.5039	39.6454	67.1746	128.533	-34.558	32.3021	118.368	-30.1995	7.17748	106.858	-24.2172	-18.4817	91.2413	-28.5798	47.079	76.5402	9.27773	50.1575	90.3918	25.0915	83.4761	75.2549	-24.8417	67.6582	70.7329	7.47555	74.7963	96.1139	15.9858	101.885	67.8883	-28.7432	87.7208	72.6243	4.17997	96.8234	98.0328	8.08308	113.325	114.533	-66.7796	97.1002	131.062	-78.7743	120.526	148.711	-60.7532	90.109	
132	1.1	175.314	-20.5462	98.5072	159.7	12.4109	84.1654	131.187	34.2934	67.361	105.165	37.3065	65.6507	128.998	-36.5048	31.7511	120.514	-31.1078	5.39764	112.151	-24.6358	-25.3809	99.3268	-25.8418	41.5012	84.0787	11.8992	47.1349	98.6498	26.7645	78.3667	80.9176	-20.1153	63.6967	78.5636	9.77444	69.9369	106.38	17.7428	95.6565	74.0388	-26.8767	86.2849	81.7693	8.26371	92.9674	106.804	6.12207	107.183	115.273	-68.401	95.6461	132.843	-78.235	124.108	156.022	-63.6338	91.5328	
133	1.10833	181.141	-20.9301	96.255	160.547	9.5645	80.5212	137.709	29.6663	68.3336	110.787	36.0125	62.5617	139.63	-36.9572	25.4154	130.028	-30.9726	0.255743	115.144	-27.7986	-26.0126	101.208	-25.2731	40.8777	93.1666	8.59041	40.5558	105.558	26.553	75.9855	86.6387	-22.0402	61.6258	83.0026	9.12524	69.7395	107.326	16.9608	95.6153	77.2627	-24.0432	83.1324	86.7098	8.95646	92.7291	112.15	6.16021	103.83	120.804	-65.9874	92.6743	140.744	-77.1874	116.255	161.6	-61.7325	88.1175	
134	1.11667	183.052	-21.5997	96.3364	166.575	9.43171	81.2236	140.917	32.7588	61.5401	112.493	34.1623	55.4078	144.551	-39.784	25.8359	140.223	-33.1045	0.0321587	126.4	-29.7089	-28.3281	111.374	-28.425	35.6455	96.3382	6.35429	39.4543	111.494	24.3398	75.8464	94.8399	-25.0612	56.0691	89.1841	4.98031	64.1297	117.508	14.7508	91.3555	86.8269	-31.0611	79.2705	93.3451	4.17005	86.1088	117.843	4.12803	101.798	132.029	-69.4211	91.8155	149.857	-76.713	121.032	167.342	-63.8312	90.3533	
